<svg width="29" height="28" viewBox="0 0 29 28" fill="none" xmlns="http://www.w3.org/2000/svg">
<g clip-path="url(#clip0_26_990)">
<path d="M25.6995 6.65933C25.4771 4.48538 25.1229 2.79273 24.5624 2.12741C22.2518 -0.608159 6.06615 -0.808351 4.22845 2.12741C3.77892 2.84667 3.46365 4.53333 3.25206 6.66292C2.91832 6.70126 2.61026 6.86083 2.3864 7.11131C2.16254 7.3618 2.03846 7.68578 2.03772 8.02172V10.6848C2.03814 10.9654 2.12454 11.2391 2.2853 11.4691C2.44605 11.699 2.67342 11.8742 2.93679 11.971C2.81272 16.1655 2.91341 20.5416 3.09922 22.7179C3.09922 24.398 4.22786 24.1193 4.22786 24.1193H5.28576V25.933C5.28576 26.6523 6.0272 27.2343 6.94065 27.2343C7.85531 27.2343 8.59674 26.6523 8.59674 25.933V24.1193H20.9044V25.933C20.9044 26.6523 21.6452 27.2343 22.5599 27.2343C23.4734 27.2343 24.2148 26.6523 24.2148 25.933V24.1193H24.5624C24.5624 24.1193 25.8907 24.3015 25.9758 23.5103C25.9758 21.3399 26.1124 16.5299 25.9997 11.9896C26.2786 11.9035 26.5225 11.7303 26.6958 11.4955C26.8692 11.2607 26.9628 10.9766 26.963 10.6848V8.02172C26.9623 7.67734 26.8319 7.34585 26.5977 7.09334C26.3636 6.84084 26.0428 6.68586 25.6995 6.65933ZM8.18137 2.51761H20.6095V4.39787H8.18137V2.51761ZM8.35878 21.9777C7.89023 21.9777 7.44087 21.7916 7.10956 21.4602C6.77824 21.1289 6.59211 20.6796 6.59211 20.211C6.59211 19.7425 6.77824 19.2931 7.10956 18.9618C7.44087 18.6305 7.89023 18.4443 8.35878 18.4443C8.82734 18.4443 9.2767 18.6305 9.60801 18.9618C9.93933 19.2931 10.1255 19.7425 10.1255 20.211C10.1255 20.6796 9.93933 21.1289 9.60801 21.4602C9.2767 21.7916 8.82734 21.9777 8.35878 21.9777ZM20.543 21.9777C20.3056 21.9865 20.0689 21.9474 19.847 21.8627C19.6251 21.778 19.4226 21.6494 19.2515 21.4846C19.0805 21.3198 18.9444 21.1222 18.8514 20.9037C18.7584 20.6851 18.7104 20.4501 18.7103 20.2125C18.7103 19.975 18.7581 19.7399 18.8509 19.5213C18.9437 19.3027 19.0797 19.105 19.2507 18.9401C19.4216 18.7752 19.6241 18.6465 19.8459 18.5616C20.0678 18.4768 20.3044 18.4375 20.5418 18.4461C20.9988 18.4628 21.4316 18.6561 21.7491 18.9853C22.0666 19.3145 22.2441 19.754 22.2443 20.2113C22.2444 20.6687 22.0673 21.1083 21.75 21.4377C21.4327 21.7671 21 21.9607 20.543 21.9777ZM22.7889 14.2457H6.00202V5.44079H22.7889V14.2457Z" fill="#C7C7C7"/>
</g>
<defs>
<clipPath id="clip0_26_990">
<rect width="27.234" height="27.234" fill="white" transform="translate(0.882935)"/>
</clipPath>
</defs>
</svg>
