<svg width="28" height="28" viewBox="0 0 28 28" fill="none" xmlns="http://www.w3.org/2000/svg">
<g clip-path="url(#clip0_26_978)">
<path d="M13.617 18.156C14.2671 18.156 15.1813 16.3982 15.2965 13.6171H11.9376C12.0527 16.3982 12.967 18.156 13.617 18.156ZM8.56799 12.4823H10.7918C10.8546 10.9367 11.1738 9.39972 11.7279 8.31514C10.0168 9.00046 8.7814 10.5853 8.56799 12.4823ZM15.5062 8.31514C16.0603 9.39977 16.3795 10.9367 16.4423 12.4823H18.6661C18.4527 10.5853 17.2173 9.00046 15.5062 8.31514ZM13.617 7.94328C12.967 7.94328 12.0527 9.7011 11.9376 12.4823H15.2965C15.1813 9.7011 14.2671 7.94328 13.617 7.94328ZM8.56799 13.6171C8.7814 15.514 10.0168 17.0989 11.7279 17.7842C11.1738 16.6996 10.8546 15.1626 10.7918 13.6171H8.56799Z" fill="#C7C7C7"/>
<path d="M21.5603 3.4043H20.4255V2.23042C20.4255 0.813562 19.0891 -0.294096 17.6491 0.0699463L5.54435 3.41739C4.35392 3.48606 3.4043 4.46643 3.4043 5.67376V24.9645C3.4043 26.2162 4.42217 27.234 5.67381 27.234H21.5603C22.812 27.234 23.8298 26.2162 23.8298 24.9645V5.67376C23.8298 4.42212 22.812 3.4043 21.5603 3.4043ZM17.9405 1.16649C18.6026 0.997498 19.2908 1.53383 19.2908 2.23037V3.40425H9.84918L17.9405 1.16649ZM16.454 23.8298H10.2128C10.1383 23.8298 10.0645 23.8152 9.9956 23.7867C9.92674 23.7582 9.86417 23.7164 9.81148 23.6637C9.75878 23.611 9.71699 23.5485 9.68849 23.4796C9.65999 23.4107 9.64535 23.3369 9.6454 23.2624C9.64535 23.1879 9.65999 23.1141 9.68849 23.0452C9.71699 22.9763 9.75878 22.9138 9.81148 22.8611C9.86417 22.8084 9.92674 22.7666 9.9956 22.7381C10.0645 22.7096 10.1383 22.695 10.2128 22.695H16.4539C16.5284 22.695 16.6022 22.7096 16.6711 22.7381C16.7399 22.7666 16.8025 22.8084 16.8552 22.8611C16.9079 22.9138 16.9497 22.9763 16.9782 23.0452C17.0067 23.1141 17.0213 23.1879 17.0213 23.2624C17.0213 23.3369 17.0067 23.4107 16.9782 23.4796C16.9497 23.5484 16.9079 23.611 16.8552 23.6637C16.8025 23.7164 16.74 23.7582 16.6711 23.7867C16.6023 23.8152 16.5285 23.8298 16.454 23.8298ZM18.7234 21.5608H7.94333C7.86881 21.5609 7.795 21.5462 7.72614 21.5177C7.65728 21.4892 7.59471 21.4474 7.54201 21.3947C7.48932 21.342 7.44752 21.2795 7.41903 21.2106C7.39053 21.1417 7.37589 21.0679 7.37594 20.9934C7.37589 20.9189 7.39053 20.8451 7.41903 20.7762C7.44752 20.7074 7.48932 20.6448 7.54201 20.5921C7.59471 20.5394 7.65728 20.4976 7.72614 20.4691C7.795 20.4406 7.86881 20.426 7.94333 20.426H18.7234C18.7979 20.426 18.8717 20.4406 18.9406 20.4691C19.0095 20.4976 19.072 20.5394 19.1247 20.5921C19.1774 20.6448 19.2192 20.7074 19.2477 20.7762C19.2762 20.8451 19.2909 20.9189 19.2908 20.9934C19.2909 21.0679 19.2762 21.1417 19.2477 21.2106C19.2192 21.2795 19.1774 21.342 19.1247 21.3947C19.072 21.4474 19.0095 21.4892 18.9406 21.5177C18.8717 21.5462 18.7979 21.5609 18.7234 21.5608ZM13.617 19.2908C10.1757 19.2908 7.37594 16.491 7.37594 13.0497C7.37594 9.60828 10.1757 6.80855 13.617 6.80855C17.0584 6.80855 19.8581 9.60828 19.8581 13.0497C19.8581 16.491 17.0584 19.2908 13.617 19.2908Z" fill="#C7C7C7"/>
<path d="M15.5062 17.7842C17.2173 17.0989 18.4528 15.514 18.6661 13.6171H16.4423C16.3795 15.1626 16.0603 16.6995 15.5062 17.7842Z" fill="#C7C7C7"/>
</g>
<defs>
<clipPath id="clip0_26_978">
<rect width="27.234" height="27.234" fill="white"/>
</clipPath>
</defs>
</svg>
