<svg width="120" height="60" viewBox="0 0 120 60" fill="none" xmlns="http://www.w3.org/2000/svg">
<g clip-path="url(#clip0_68_714)">
<path d="M11.6652 48.8048L7.12911 59.8095H4.53192L6.10352e-05 48.8048H2.26705L5.83157 57.2589L9.31143 48.8048H11.6631H11.6652ZM15.8055 59.8095H13.693V48.8048H15.8055V59.8095ZM28.8909 56.5223C28.8782 57.5954 28.4464 58.4421 27.5955 59.0665C26.7488 59.691 25.5486 60.0021 23.995 60.0021C21.8529 60.0021 19.9987 59.4497 18.445 58.3469L19.6621 56.6366C20.8919 57.4706 22.3143 57.8897 23.9272 57.9024C24.9115 57.8727 25.6439 57.7351 26.1053 57.4938C26.5858 57.2546 26.8314 56.9244 26.8441 56.5096C26.8737 56.101 26.6409 55.7708 26.1413 55.519C25.6439 55.2607 24.8565 55.0744 23.7897 54.9601C21.9185 54.7612 20.6633 54.3908 20.0283 53.8446C19.3975 53.2858 19.0864 52.5725 19.0991 51.6962C19.1181 50.7543 19.5732 50.0155 20.4601 49.4758C21.3491 48.9297 22.4392 48.6481 23.724 48.6227C25.2354 48.6227 26.7234 49.0545 28.1882 49.9182L27.024 51.5925C26.0334 51.0294 24.8882 50.7394 23.5738 50.7394C23.0107 50.7267 22.4688 50.7945 21.9587 50.9384C21.4613 51.0823 21.22 51.3342 21.2454 51.6941C21.2221 52.0243 21.438 52.2825 21.8931 52.4794C22.3482 52.6656 23.1229 52.8159 24.2278 52.9239C25.955 53.0805 27.1679 53.5123 27.858 54.2193C28.548 54.9326 28.8909 55.6946 28.8909 56.518V56.5223ZM33.6366 59.8095H31.5177V48.8048H33.6366V59.8095ZM45.8711 50.894H42.1203V59.8095H40.0078V50.894H36.2761V48.8069H45.8711V50.894ZM64.3816 59.8095H62.3179V55.0279H56.0545V59.8095H53.9357V48.8048H56.0545V52.8964H62.3179V48.8048H64.3816V59.8095ZM79.0821 59.8095H76.7368C75.3694 56.9181 74.2709 54.6384 72.7532 51.4634C70.5942 55.9402 70.9117 55.375 68.7569 59.8095H66.4052L71.6843 48.8048H73.8031L79.0821 59.8095ZM91.3336 59.8095H88.8676L86.4017 55.6883H82.9515V59.8095H80.839V48.8048H87.6484C88.6263 48.8048 89.454 49.1477 90.1334 49.825C90.8235 50.4918 91.1664 51.294 91.1664 52.2381C91.1664 52.9704 90.9505 53.6351 90.5187 54.2235C90.0869 54.8183 89.5048 55.2374 88.7851 55.4893L91.3357 59.8095H91.3336ZM89.0476 52.2381C89.0476 51.8782 88.91 51.5671 88.6327 51.3025C88.3681 51.0315 88.0379 50.894 87.6484 50.894H82.9493V53.5991H87.6484C88.0379 53.5991 88.3681 53.4679 88.6327 53.2096C88.9079 52.9345 89.0476 52.6106 89.0476 52.2381ZM105.746 59.8095H103.395C101.739 56.2937 101.2 55.1951 99.4173 51.4634C97.2582 55.9275 97.563 55.3941 95.4146 59.8095H93.0693L98.3483 48.8048H100.467L105.746 59.8095ZM119.774 59.8095H117.661V53.2879L113.743 59.8095L109.802 53.2879V59.8095H107.715V48.8048H109.664L113.745 55.7349L117.778 48.8048H119.776V59.8095H119.774Z" fill="#0FB074"/>
<path d="M36.1028 33.2882L48.4749 21.6295L62.551 40.2353H9.7435V45.618H5.34711L5.33441 35.6272H53.5634L47.9351 27.8822L41.9597 33.2882H36.1028Z" fill="black"/>
<path fill-rule="evenodd" clip-rule="evenodd" d="M101.648 21.386C101.648 18.4946 103.869 16.9092 106.244 15.2053C107.96 13.9818 109.759 12.6906 110.78 10.8195L111.061 10.303L111.349 10.8131C112.34 12.589 113.965 13.8548 115.519 15.0613C117.769 16.814 119.875 18.4459 119.875 21.386V38.1566L117.907 34.952V21.386C117.907 19.3392 115.405 17.449 113.371 15.9207C112.416 15.201 111.559 14.5533 111.065 13.9649C110.568 14.5597 109.607 15.2243 108.521 15.98C106.33 17.4976 103.606 19.3942 103.606 21.386V27.1691L101.638 27.1924L101.644 21.386H101.648ZM6.10352e-05 27.4991C6.10352e-05 24.0192 1.68072 22.3809 3.73815 20.37C4.91504 19.2249 6.21681 17.9527 7.38523 16.1281L7.6604 15.6963L7.93134 16.1345C9.07224 17.9654 10.3804 19.2482 11.5678 20.4123C13.6083 22.4169 15.3059 24.0848 15.3059 27.4991V31.2435H35.9522L33.9477 33.2226H13.3691V27.4991C13.3691 24.6966 11.5996 23.1069 9.89564 21.5765C9.06801 20.8336 8.25731 20.1012 7.63923 19.2418C7.08678 19.9022 6.40943 20.5076 5.70034 21.1384C3.90114 22.7471 1.93896 24.4933 1.93896 27.4991V45.6074H6.10352e-05V27.4991ZM56.281 29.258V19.3752C56.281 14.9343 59.9048 12.9002 63.2661 11.0227C65.4929 9.77381 67.5927 8.59269 68.2997 6.85276L68.5812 6.16907L68.8923 6.84006C69.8173 8.81494 71.9954 9.98336 74.2201 11.1835C77.52 12.9594 80.9152 14.7904 80.9152 19.373V31.2477H91.7696L91.7633 33.2269H78.9297V19.3752C78.9297 16.2065 75.5515 14.3649 72.5881 12.7457C70.9498 11.8566 69.4384 11.029 68.5981 10.0511C67.7705 11.029 66.2528 11.8503 64.6208 12.7457C61.6574 14.3607 58.2728 16.2022 58.2728 19.3752V31.8129L56.281 29.2559V29.258Z" fill="#C2AF00"/>
<path fill-rule="evenodd" clip-rule="evenodd" d="M68.9537 0C69.1167 0 69.2649 0.0127002 69.4215 0.0359839C68.251 0.222254 67.345 1.23615 67.345 2.46596C67.345 3.83335 68.4542 4.93191 69.811 4.93191C71.0408 4.93191 72.061 4.03867 72.2537 2.86813C72.2727 3.01207 72.2896 3.17505 72.2896 3.32957C72.2896 5.1711 70.7889 6.66549 68.9537 6.66549C67.1185 6.66549 65.6241 5.1711 65.6241 3.32957C65.6241 1.48804 67.1122 0 68.9537 0Z" fill="#C2AF00"/>
<path fill-rule="evenodd" clip-rule="evenodd" d="M111.08 23.7761C112.755 27.4655 116.127 26.5363 116.097 31.6185H116.103V35.9683L118.618 40.1975L69.3157 40.1742V45.5273H53.3198V41.1352H64.7309C64.7309 35.8921 64.7436 30.6236 64.7436 25.4039C64.7436 25.4039 66.8984 25.6325 67.1863 26.3818C67.4741 27.1374 67.6371 28.5006 69.0638 28.6255C70.4926 28.7567 69.286 29.8786 69.286 29.8786V30.1791L69.3157 30.2024V35.8434C83.8299 35.8498 97.7324 35.9154 112.247 35.8561V31.6206L112.253 31.6143C112.338 28.8837 109.45 28.8964 109.486 31.5783L109.535 33.2399H93.9223V26.1426L93.916 26.1362V23.4777C93.916 23.4777 94.8156 23.6999 95.0971 24.4386C95.3786 25.1774 95.5352 26.5151 96.9386 26.64C98.3356 26.767 97.1545 27.8698 97.1545 27.8698V28.3799V29.3811H106.394C106.917 26.8919 109.652 26.8728 111.08 23.7761Z" fill="black"/>
</g>
<defs>
<clipPath id="clip0_68_714">
<rect width="119.875" height="60" fill="white"/>
</clipPath>
</defs>
</svg>
