<svg width="34" height="34" viewBox="0 0 34 34" fill="none" xmlns="http://www.w3.org/2000/svg">
<g clip-path="url(#clip0_6_453)">
<path d="M8.82596 29.1195L9.37185 29.3942C11.6467 30.7678 14.1944 31.4088 16.7421 31.4088C24.7493 31.4088 31.3005 24.8157 31.3005 16.7574C31.3005 12.9115 29.7536 9.15701 27.024 6.40984C24.2943 3.66267 20.6546 2.10602 16.7421 2.10602C8.73504 2.10602 2.18365 8.69913 2.2747 16.849C2.2747 19.5961 3.0936 22.2517 4.45841 24.5409L4.82234 25.0904L3.36662 30.4931L8.82596 29.1195Z" fill="#18D679"/>
<path d="M28.5709 4.94483C25.4772 1.73991 21.2007 0 16.8331 0C7.55226 0 0.0910477 7.60038 0.181965 16.849C0.181965 19.7793 1.00087 22.6181 2.36581 25.1821L0 33.8813L8.82602 31.592C11.2827 32.9657 14.0123 33.6067 16.7422 33.6067C25.9322 33.6067 33.3934 26.0062 33.3934 16.7577C33.3934 12.2706 31.6645 8.05826 28.571 4.94483H28.5709ZM16.8331 30.768C14.3764 30.768 11.9197 30.1272 9.82689 28.8451L9.281 28.5704L4.00362 29.9439L5.36842 24.7244L5.00449 24.1749C1.00087 17.6734 2.9117 9.06553 9.46296 5.03633C16.0142 1.00727 24.4763 2.9303 28.4799 9.52341C32.4834 16.1165 30.5726 24.6327 24.0215 28.6619C21.9285 30.0354 19.3809 30.7679 16.8331 30.7679V30.768ZM24.8402 20.6037L23.8394 20.1459C23.8394 20.1459 22.3836 19.5048 21.4737 19.047C21.3826 19.047 21.2917 18.9553 21.2007 18.9553C20.9277 18.9553 20.7457 19.047 20.5637 19.1386C20.5637 19.1386 20.4728 19.2301 19.1989 20.6952C19.1079 20.8784 18.9259 20.97 18.744 20.97H18.6529C18.562 20.97 18.38 20.8784 18.289 20.7869L17.834 20.6037C16.8331 20.1459 15.9233 19.5963 15.1953 18.8638C15.0133 18.6807 14.7403 18.4976 14.5584 18.3145C13.9214 17.6734 13.2845 16.9408 12.8296 16.1167L12.7386 15.9335C12.6477 15.8419 12.6477 15.7504 12.5566 15.5673C12.5566 15.3841 12.5566 15.201 12.6477 15.1094C12.6477 15.1094 13.0116 14.6515 13.2845 14.3769C13.4666 14.1936 13.5575 13.919 13.7395 13.7359C13.9214 13.4611 14.0125 13.0949 13.9214 12.8201C13.8305 12.3622 12.7386 9.8898 12.4657 9.34042C12.2836 9.06566 12.1018 8.97416 11.8288 8.88253H10.8279C10.6458 8.88253 10.464 8.97416 10.2819 8.97416L10.1908 9.06566C10.0089 9.15729 9.82689 9.34042 9.64493 9.43192C9.46296 9.61518 9.37191 9.79817 9.18995 9.98143C8.55301 10.8056 8.18908 11.8128 8.18908 12.8201C8.18908 13.5526 8.37104 14.2853 8.64405 14.9263L8.7351 15.201C9.55401 16.9408 10.6458 18.4976 12.1018 19.8711L12.4657 20.2374C12.7386 20.5121 13.0116 20.6952 13.1936 20.9699C15.1044 22.6183 17.2881 23.8087 19.7448 24.4497C20.0178 24.5412 20.3818 24.5412 20.6548 24.6328H21.5646C22.0196 24.6328 22.5655 24.4497 22.9295 24.2666C23.2024 24.0834 23.3844 24.0834 23.5664 23.9003L23.7485 23.717C23.9304 23.5339 24.1124 23.4424 24.2943 23.2593C24.4763 23.0762 24.6583 22.893 24.7493 22.7098C24.9313 22.3435 25.0222 21.8856 25.1133 21.4279V20.7869C25.1133 20.7869 25.0222 20.6952 24.8402 20.6037Z" fill="white"/>
</g>
<defs>
<clipPath id="clip0_6_453">
<rect width="33.3929" height="34" fill="white"/>
</clipPath>
</defs>
</svg>
