<svg width="32" height="30" viewBox="0 0 32 30" fill="none" xmlns="http://www.w3.org/2000/svg">
<path d="M29.325 4.71094H2.675C1.26875 4.71094 0.125 5.7832 0.125 7.10156V16.5059C0.125 17.8242 1.26875 18.8965 2.675 18.8965H29.3312C30.7375 18.8965 31.8813 17.8242 31.8813 16.5059V7.10156C31.875 5.7832 30.7313 4.71094 29.325 4.71094ZM30.1125 16.5059C30.1125 16.9102 29.7625 17.2383 29.3312 17.2383H2.675C2.24375 17.2383 1.89375 16.9102 1.89375 16.5059V7.10156C1.89375 6.69727 2.24375 6.36914 2.675 6.36914H29.3312C29.7625 6.36914 30.1125 6.69727 30.1125 7.10156V16.5059Z" fill="#09B175"/>
<path d="M27.5812 14.0742H4.41873C3.93123 14.0742 3.53748 14.4434 3.53748 14.9004C3.53748 15.3574 3.93123 15.7266 4.41873 15.7266H27.5875C28.075 15.7266 28.4687 15.3574 28.4687 14.9004C28.4687 14.4434 28.0687 14.0742 27.5812 14.0742ZM27.6625 7.79297C27.175 7.79297 26.7812 8.16211 26.7812 8.61914V8.89453C26.7812 9.35156 27.175 9.7207 27.6625 9.7207C28.15 9.7207 28.5437 9.35156 28.5437 8.89453V8.61914C28.5437 8.16211 28.15 7.79297 27.6625 7.79297ZM27.6625 10.9219C27.175 10.9219 26.7812 11.291 26.7812 11.748V12.0234C26.7812 12.4805 27.175 12.8496 27.6625 12.8496C28.15 12.8496 28.5437 12.4805 28.5437 12.0234V11.748C28.5437 11.2969 28.15 10.9219 27.6625 10.9219ZM6.68123 20.1621C6.20623 20.0508 5.73123 20.3203 5.61248 20.7656L4.95623 23.2148C4.83748 23.6602 5.12498 24.1113 5.59998 24.2168C6.14373 24.334 6.56873 23.9883 6.66873 23.6133L7.32498 21.1641C7.44373 20.7246 7.15623 20.2734 6.68123 20.1621ZM12.8937 21.1172C12.4062 21.0762 11.9812 21.416 11.9437 21.873L11.725 24.3926C11.6875 24.8496 12.0437 25.2598 12.5312 25.2832C13.0375 25.3125 13.4437 24.9609 13.4812 24.5273L13.7 22.0078C13.7437 21.5566 13.3812 21.1582 12.8937 21.1172ZM26.3875 20.7656C26.2687 20.3203 25.7875 20.0566 25.3187 20.1621C24.8437 20.2734 24.5562 20.7246 24.675 21.1641L25.3312 23.6133C25.4312 23.9883 25.8625 24.334 26.4 24.2168C26.875 24.1113 27.1625 23.6543 27.0437 23.2148L26.3875 20.7656ZM19.1062 21.1172C18.6187 21.1523 18.2562 21.5508 18.3 22.0078L18.5187 24.5273C18.5562 24.9609 18.9687 25.3125 19.4687 25.2832C19.9562 25.2539 20.3125 24.8496 20.275 24.3926L20.0562 21.873C20.0125 21.4219 19.5937 21.0762 19.1062 21.1172Z" fill="#09B175"/>
</svg>
