<svg width="28" height="28" viewBox="0 0 28 28" fill="none" xmlns="http://www.w3.org/2000/svg">
<g clip-path="url(#clip0_26_995)">
<path d="M3.07602 15.1594V6.64879C3.07602 6.5087 3.04843 6.36998 2.99482 6.24056C2.94121 6.11113 2.86263 5.99353 2.76357 5.89448C2.66452 5.79542 2.54692 5.71684 2.41749 5.66323C2.28807 5.60962 2.14935 5.58203 2.00926 5.58203C1.86917 5.58203 1.73046 5.60962 1.60103 5.66323C1.47161 5.71684 1.35401 5.79542 1.25495 5.89448C1.15589 5.99353 1.07732 6.11113 1.02371 6.24056C0.970097 6.36998 0.942505 6.5087 0.942505 6.64879V20.5839C0.942505 20.724 0.970097 20.8627 1.02371 20.9921C1.07732 21.1216 1.15589 21.2392 1.25495 21.3382C1.35401 21.4373 1.47161 21.5159 1.60103 21.5695C1.73046 21.6231 1.86917 21.6507 2.00926 21.6507C2.14935 21.6507 2.28807 21.6231 2.41749 21.5695C2.54692 21.5159 2.66452 21.4373 2.76357 21.3382C2.86263 21.2392 2.94121 21.1216 2.99482 20.9921C3.04843 20.8627 3.07602 20.724 3.07602 20.5839V18.5849L24.9248 18.5343V20.5322C24.9248 20.6722 24.9524 20.8109 25.006 20.9403C25.0596 21.0697 25.1381 21.1872 25.2372 21.2863C25.3362 21.3853 25.4538 21.4639 25.5832 21.5175C25.7126 21.5711 25.8512 21.5986 25.9913 21.5986C26.1313 21.5986 26.27 21.5711 26.3994 21.5175C26.5288 21.4639 26.6464 21.3853 26.7454 21.2863C26.8444 21.1872 26.923 21.0697 26.9766 20.9403C27.0302 20.8109 27.0578 20.6722 27.0578 20.5322V15.1088L3.07602 15.1594Z" fill="#C7C7C7"/>
<path d="M27.0576 14.2454H10.8424V10.2278C10.8424 9.66814 11.0647 9.13138 11.4604 8.73557C11.8561 8.33977 12.3928 8.11733 12.9525 8.11719H22.7965C23.9266 8.11719 25.0104 8.56612 25.8095 9.36522C26.6086 10.1643 27.0576 11.2481 27.0576 12.3782V14.2454Z" fill="#C7C7C7"/>
<path d="M7.04675 13.7863C8.48496 13.7863 9.65086 12.6204 9.65086 11.1822C9.65086 9.74397 8.48496 8.57806 7.04675 8.57806C5.60853 8.57806 4.44263 9.74397 4.44263 11.1822C4.44263 12.6204 5.60853 13.7863 7.04675 13.7863Z" fill="#C7C7C7"/>
</g>
<defs>
<clipPath id="clip0_26_995">
<rect width="27.234" height="27.234" fill="white" transform="translate(0.382935)"/>
</clipPath>
</defs>
</svg>
