<svg width="32" height="30" viewBox="0 0 32 30" fill="none" xmlns="http://www.w3.org/2000/svg">
<g clip-path="url(#clip0_56_52)">
<path d="M29.1875 16.7285H26.7967L31.8617 5.64898C32.0657 5.20284 31.8452 4.68611 31.3693 4.49491C30.8934 4.30372 30.3423 4.51038 30.1383 4.95652L24.7568 16.7285H7.24319L1.86169 4.95652C1.65775 4.51038 1.10669 4.30361 0.630687 4.49491C0.154812 4.68611 -0.065625 5.20279 0.138313 5.64898L5.20325 16.7285H2.8125C1.26169 16.7285 0 17.9114 0 19.3652V24.6387C0 26.0926 1.26169 27.2754 2.8125 27.2754H3.8125V28.2129C3.8125 28.6983 4.23225 29.0918 4.75 29.0918C5.26775 29.0918 5.6875 28.6983 5.6875 28.2129V27.2754H26.3125V28.2129C26.3125 28.6983 26.7323 29.0918 27.25 29.0918C27.7677 29.0918 28.1875 28.6983 28.1875 28.2129V27.2754H29.1875C30.7383 27.2754 32 26.0926 32 24.6387V19.3652C32 17.9114 30.7383 16.7285 29.1875 16.7285ZM30.125 24.6387C30.125 25.1233 29.7044 25.5176 29.1875 25.5176H2.8125C2.29556 25.5176 1.875 25.1233 1.875 24.6387V19.3652C1.875 18.8806 2.29556 18.4863 2.8125 18.4863H29.1875C29.7044 18.4863 30.125 18.8806 30.125 19.3652V24.6387Z" fill="#09B175"/>
<path d="M14.0151 12.2283C13.6489 12.5716 13.6489 13.128 14.0151 13.4713C14.3811 13.8145 14.9748 13.8145 15.3409 13.4713C15.4438 13.3748 15.6664 13.2129 16 13.2129C16.3336 13.2129 16.5561 13.3748 16.6591 13.4713C17.0252 13.8145 17.6188 13.8146 17.9849 13.4713C18.3511 13.128 18.3511 12.5716 17.9849 12.2283C17.6769 11.9396 17.0094 11.4551 16 11.4551C14.9906 11.4551 14.3231 11.9396 14.0151 12.2283ZM7.3815 6.0167C9.68463 3.856 12.7454 2.66602 16 2.66602C19.2546 2.66602 22.3154 3.856 24.6185 6.0167C24.9843 6.35994 25.5779 6.36041 25.9443 6.01717C26.3106 5.6741 26.3108 5.11758 25.9448 4.77422C23.2876 2.28117 19.7558 0.908203 16 0.908203C12.2443 0.908203 8.7125 2.28117 6.05525 4.77416C5.68925 5.11752 5.68944 5.67398 6.05575 6.01711C6.42194 6.36023 7.01563 6.36 7.3815 6.0167Z" fill="#09B175"/>
<path d="M23.291 8.50201C23.6572 8.159 23.6576 7.60248 23.2917 7.25906C21.3434 5.43076 18.7539 4.42383 16 4.42383C13.2461 4.42383 10.6565 5.43076 8.70831 7.25906C8.34243 7.60248 8.34268 8.15895 8.709 8.50201C9.07531 8.84508 9.66893 8.84478 10.0348 8.50137C11.6287 7.00547 13.7472 6.18164 15.9999 6.18164C18.2526 6.18164 20.3711 7.00547 21.9651 8.50137C22.3309 8.84461 22.9244 8.84531 23.291 8.50201Z" fill="#09B175"/>
<path d="M20.6386 10.9861C21.0047 10.6429 21.0047 10.0864 20.6386 9.74314C19.3979 8.58 17.7505 7.93945 15.9999 7.93945C14.2494 7.93945 12.602 8.58 11.3614 9.74314C10.9953 10.0864 10.9953 10.6429 11.3614 10.9861C11.7274 11.3293 12.3211 11.3294 12.6872 10.9861C13.5737 10.155 14.7502 9.69727 15.9999 9.69727C17.2497 9.69727 18.4262 10.155 19.3128 10.9861C19.6788 11.3293 20.2724 11.3293 20.6386 10.9861ZM19.7499 20.2441C19.2322 20.2441 18.8124 20.6377 18.8124 21.123V22.8809C18.8124 23.3663 19.2322 23.7598 19.7499 23.7598C20.2677 23.7598 20.6874 23.3663 20.6874 22.8809V21.123C20.6874 20.6377 20.2677 20.2441 19.7499 20.2441ZM23.4999 20.2441C22.9822 20.2441 22.5624 20.6377 22.5624 21.123V22.8809C22.5624 23.3663 22.9822 23.7598 23.4999 23.7598C24.0177 23.7598 24.4374 23.3663 24.4374 22.8809V21.123C24.4374 20.6377 24.0177 20.2441 23.4999 20.2441ZM27.2499 20.2441C26.7322 20.2441 26.3124 20.6377 26.3124 21.123V22.8809C26.3124 23.3663 26.7322 23.7598 27.2499 23.7598C27.7677 23.7598 28.1874 23.3663 28.1874 22.8809V21.123C28.1874 20.6377 27.7677 20.2441 27.2499 20.2441Z" fill="#09B175"/>
</g>
<defs>
<clipPath id="clip0_56_52">
<rect width="32" height="30" fill="white"/>
</clipPath>
</defs>
</svg>
